<svg id="Layer_1" data-name="Layer 1" xmlns="http://www.w3.org/2000/svg" viewBox="0 0 506.55 223.01"><defs><style>.cls-1{fill:#ee3b6d;}.cls-2{fill:none;stroke:#231f20;stroke-width:3px;}.cls-2,.cls-5{stroke-miterlimit:10;}.cls-3{font-size:48.83px;font-family:FranklinGothic-Heavy, Franklin Gothic Heavy;font-weight:800;}.cls-3,.cls-4{fill:#231f20;}.cls-5{fill:#f4d80e;stroke:#000;stroke-width:2px;}</style></defs><path d="M613.17,107c-.16-.16-.32-.31-.49-.45l-.45-.42c-.2-.19-.42-.37-.63-.55s-.69-.65-1.07-1a14.18,14.18,0,0,0-1.14-1.05c-.3-.3-.62-.59-.95-.87a10.16,10.16,0,0,0-.76-.7c-.26-.26-.54-.51-.83-.75l-.4-.4A18.32,18.32,0,0,0,612.82,95a20.19,20.19,0,0,0,3.43-11.29,19.68,19.68,0,0,0-5.9-14.31c-.12-.12-.27-.23-.4-.35l-.08-.09-.43-.37-.09-.1c-.09-.09-.21-.17-.3-.26l-.06-.07c-.25-.25-.53-.46-.79-.69l-.16-.18c-.31-.31-.66-.59-1-.87l-.2-.22c-.28-.29-.6-.53-.9-.79l-.18-.19c-.2-.21-.44-.38-.66-.58a.86.86,0,0,0-.13-.14c-.19-.19-.41-.35-.61-.53l-.12-.14c-.24-.25-.53-.46-.8-.7a1.29,1.29,0,0,0-.16-.17c-.15-.16-.33-.29-.49-.43l-.09-.11c-.2-.2-.43-.37-.63-.55l-.13-.14c-.11-.12-.25-.21-.37-.32a.27.27,0,0,0-.07-.08c-.11-.12-.25-.21-.37-.32a.27.27,0,0,0-.07-.08l-.22-.2-.05,0c-.13-.13-.28-.23-.41-.36l-.08-.09c-.09-.09-.19-.15-.27-.24l-.06-.06c-.12-.12-.27-.22-.39-.34l-.08-.09-.25-.22s0,0,0-.05-.29-.25-.44-.38l-.08-.1c-.1-.09-.21-.17-.31-.27l-.06-.07c-.16-.15-.34-.28-.49-.42l-.1-.11-.26-.23-.05,0c-.07-.08-.17-.14-.25-.22l0-.05c-.09-.09-.2-.16-.29-.25l-.05-.06c-.1-.1-.22-.18-.32-.28s0-.05-.07-.07l-.16-.14,0,0c-.13-.13-.29-.24-.43-.37l-.08-.1c-.2-.2-.44-.37-.66-.57l-.13-.14-.19-.17s0,0,0,0q-5.89-6-18.76-4.85l-41.26,3.61v81.27l-.17-.13,15.85,14.44,38.7-3.38q18.22-1.6,23.79-9.2a27.59,27.59,0,0,0,5.57-16.65Q618.39,111.53,613.17,107Zm-77,29.21-.27-.2.27,0Zm-.51-.37-.72-.53.72-.06Zm-.78-.76v.19l-.23-.17Z" transform="translate(-128.29 -29.15)"/><path d="M534.82,113.88l-.5-.45c-.15-.14-.29-.28-.45-.41s-.42-.37-.63-.55a12.21,12.21,0,0,0-1.07-1,14.18,14.18,0,0,0-1.14-1.05c-.3-.31-.61-.6-.94-.88s-.5-.47-.76-.69-.55-.51-.84-.76c-.13-.13-.26-.27-.4-.39a18.42,18.42,0,0,0,6.37-5.88,20.13,20.13,0,0,0,3.43-11.29A19.65,19.65,0,0,0,532,76.26c-.12-.13-.27-.23-.4-.35l-.08-.09c-.13-.14-.29-.25-.43-.38l-.09-.09a3.85,3.85,0,0,0-.3-.27l-.06-.07c-.25-.24-.53-.46-.79-.69-.06,0-.1-.11-.16-.17-.31-.32-.66-.59-1-.88l-.2-.22c-.28-.28-.6-.52-.9-.78a1.71,1.71,0,0,0-.18-.2c-.2-.21-.44-.38-.65-.57l-.13-.15c-.19-.19-.41-.35-.61-.53a1.42,1.42,0,0,1-.12-.13c-.25-.25-.54-.47-.8-.7l-.16-.18c-.16-.15-.34-.28-.49-.43a.94.94,0,0,1-.1-.1c-.2-.2-.43-.37-.63-.56a1.79,1.79,0,0,1-.13-.14c-.11-.11-.25-.2-.37-.32l-.07-.08c-.11-.11-.25-.21-.36-.32a.6.6,0,0,1-.08-.08l-.22-.19s0,0-.05,0-.28-.24-.41-.36l-.08-.1c-.09-.08-.19-.15-.27-.23l-.06-.06c-.12-.13-.26-.23-.39-.35l-.08-.08-.25-.22,0-.06c-.13-.13-.29-.24-.43-.38l-.09-.09c-.1-.1-.21-.18-.31-.27l-.06-.07c-.15-.16-.33-.28-.49-.43a1.09,1.09,0,0,1-.1-.11c-.08-.08-.17-.14-.26-.22l-.05-.06-.24-.21,0-.06c-.09-.09-.19-.16-.28-.24l-.06-.07c-.1-.1-.22-.18-.32-.28l-.07-.07-.16-.14,0,0c-.13-.14-.29-.25-.43-.38l-.08-.09c-.2-.21-.44-.38-.65-.57l-.13-.15-.2-.17,0,0q-5.89-6-18.75-4.85l-41.27,3.61v81.13h-.15l.15.14h0l.23.21h0l.78.72h0l.51.46h0l.2.18h0l.38.35h0l.34.31h0l.29.27h0l.3.28h0l.59.53h0l.37.33h0l.52.47h0l.3.27h0l.48.44h0l.32.29h0l.49.45h0l.26.25h0l.43.4h0l.44.4h0l.76.69h0l.59.54h0l1,.87h0l.73.67h0l.78.72h0l1.08,1h0l1.2,1.1h0l.95.86h0l.37.34h0l.51.47h0l.48.44,38.71-3.39q18.21-1.59,23.78-9.2A27.55,27.55,0,0,0,540,127.06Q540,118.38,534.82,113.88Z" transform="translate(-128.29 -29.15)"/><path d="M458.15,76.23v-.48l-.51,0v-.51l-.37,0v-.37l-.95-.86h0l-1.2-1.1h0L454,72h0l-.78-.72h0l-.73-.67h0l-1-.87h0L451,69.2h0l-.76-.69h0l-.44-.4h0l-.43-.4h0l-.27-.25h0l-.5-.45h0l-.32-.29h0l-.48-.44h0l-.3-.27h0l-.52-.47h0l-.37-.34h0l-.59-.54h0l-.3-.28h0l-.3-.27h0l-.34-.31h0l-.38-.35h0l-.2-.18h0l-.51-.46h0l-.78-.72h0l-.12-.1,3.72-1.62-4.35-11.23-1-.91h0l-.37-.33h0l-.94-.87h0l-6.54-6h0l-.44-.4h0l-1.09-1h0l-.77-.7h0l-.52-.48h0l-.38-.34h0l-.89-.81h0l-.63-.58h0l-.39-.35h0l-.19-.18h0l-.51-.47h0l-.79-.71h0l-.38-.35.07.18L399.55,50.55l3,7.72-.08,0,15.83,14.45,5-2.17v40.59a51.69,51.69,0,0,1-.57,9.58,8.41,8.41,0,0,1-3.44,4.68,11.56,11.56,0,0,1-2.05,1.22V79.81l-1-.91h0l-.36-.34h0l-.95-.86h0l-6.54-6h0l-.44-.4h0l-1.08-1h0l-.78-.71h0l-.52-.47h0l-.37-.34h0l-.9-.82h0l-.63-.58h0l-.38-.35h0l-.2-.18h0l-.51-.46h0l-.78-.72h0l-.39-.35v.15l-25.22,2.21v55.14q0,12,6.35,17.9c.23.22.47.42.7.63s.37.34.55.51l.24.22.36.33.35.31c.09.1.2.18.3.28l.3.28.55.49.4.37c.16.16.34.3.5.45l.33.31.45.41.35.31c.15.15.31.29.47.43l.3.28.42.38.43.4c.23.22.47.43.72.64s.4.38.61.56.59.56.9.82.51.48.77.7.51.48.78.71.67.64,1,.94.76.72,1.16,1.06.66.63,1,.92c.14.15.3.28.45.42s.33.3.49.45l.49.45a17.41,17.41,0,0,0,3.24,2.49q9.32,5.61,24.68,4.27,14.58-1.28,23.66-8.77t9.08-22.8V76.19Z" transform="translate(-128.29 -29.15)"/><path d="M366.22,130.12q8.7-4.87,11.56-10.51A27.67,27.67,0,0,0,380.63,107q0-9.76-6.39-15.53c-.16-.16-.34-.31-.51-.46l-.38-.35q-.44-.42-.9-.81c-.34-.34-.7-.66-1.07-1s-.75-.71-1.15-1-.56-.54-.85-.8l-.74-.67c-.3-.29-.61-.58-.94-.85s-.41-.38-.62-.57l-.74-.68-.47-.43-.44-.4-.28-.26-.48-.43-.33-.31-.47-.42-.31-.29-.5-.45-.39-.36-.57-.51c-.1-.11-.22-.21-.33-.31l-.29-.27-.34-.3-.38-.35-.21-.19-.48-.44c-.25-.24-.5-.47-.76-.69l-.29-.27A20.23,20.23,0,0,0,357.18,76q-7.77-5.89-21.82-4.67L292.91,75v81.2l-.16-.06,15.84,14.44,25-2.18V142.1l4,10.17-.11,0,15.83,14.44,27.66-2.42Zm-72.3,26.47-.34-.13.34,0Zm-.78-.33v0l-.06,0Z" transform="translate(-128.29 -29.15)"/><path d="M276.45,121.87,297,90.33l-.82.07.33-.51-.87.08.36-.55-.62,0,.25-.39-1.6.14.66-1-1.58.14.37-1.24-5.33-4.87h0l-.44-.4h0l-1.09-1h0l-.77-.71h0l-.53-.47h0l-.37-.34h0l-.89-.82h0l-.64-.58h0l-.38-.35h0l-.19-.17h0l-.52-.47h0l-.78-.71h0l-.38-.35,0,.15L258.87,78l-9,14.36v-.2l-6.54-6h0l-.44-.4h0l-1.09-1h0l-.77-.7h0l-.52-.48h0l-.37-.34h0l-.9-.81h0l-.63-.58h0l-.39-.35h0l-.19-.18h0l-.51-.47h0l-.79-.71h0l-.38-.35V80l-23.38,2v81.21l-.15-.06,15.83,14.44,23.52-2.06V156.77l3.27-4.92,3.49,7.32-.11,0,15.83,14.44,27.3-2.39ZM214,163.65l-.44-.19.44,0Zm-.79-.39v.05l-.1,0Zm46.47-3.75-.15-.07h.11Zm-.57-.27h0Z" transform="translate(-128.29 -29.15)"/><path d="M215,138.83a22.79,22.79,0,0,0-2.63-2.88c-.17-.17-.35-.31-.52-.47l-.37-.35c-.3-.29-.61-.55-.91-.82s-.78-.74-1.19-1.08-.71-.68-1.08-1-.54-.5-.81-.74l-.73-.67c-.31-.3-.63-.58-.95-.86l-.61-.56c-.24-.24-.49-.46-.74-.68s-.31-.28-.46-.42l-.44-.4-.28-.26-.48-.44-.34-.3c-.15-.15-.31-.28-.47-.43l-.3-.28-.51-.46-.38-.35-.58-.52c-.1-.11-.21-.2-.32-.3l-.3-.27-.33-.31-.38-.35-.21-.18-.24-.22L216.89,116a28.19,28.19,0,0,0-7-10.23c-.16-.16-.34-.31-.51-.46L209,105c-.26-.25-.53-.47-.79-.7s-.75-.69-1.13-1-.73-.69-1.11-1-.57-.54-.87-.8-.49-.46-.74-.68-.6-.55-.9-.81l-.69-.65c-.23-.22-.47-.43-.71-.64s-.35-.33-.53-.49-.29-.27-.44-.4l-.32-.3-.43-.39-.37-.34-.43-.39-.35-.32c-.15-.15-.31-.28-.46-.41l-.41-.39-.53-.47-.38-.36-.3-.28-.33-.29-.37-.34-.25-.23c-.13-.13-.28-.25-.42-.38s-.47-.42-.71-.63l-.39-.37q-9.1-8.72-26.24-7.21Q152,86.07,143.31,94.47a26.66,26.66,0,0,0-8.73,19.88,20.42,20.42,0,0,0,6.07,15l.24.21h0c.24.24.5.47.77.7h0c.16.16.34.31.51.46h0l.19.17h0c.11.11.25.23.38.34h0c.1.1.23.2.34.3h0l.29.26h0l.3.27h0c.18.18.38.35.58.52h0l.37.34h0c.16.16.34.31.52.47h0c.09.09.2.17.3.26h0l.47.43h0l.32.29h0c.15.15.32.29.49.44h0l.26.24h0c.13.13.28.26.43.39h0l.44.39h0c.23.23.49.45.75.68h0c.18.18.38.35.58.53h0a9.89,9.89,0,0,0,.89.8.27.27,0,0,0,.07.08q.33.33.72.66h0c.24.24.5.47.77.7h0a11.4,11.4,0,0,0,1,.85l.12.14c.14.14.3.27.45.41L130.47,147A30.14,30.14,0,0,0,139,161.43c.17.16.35.3.52.45l.64.6.35.33.29.26.36.33.32.29.3.27.45.4.48.45c.14.13.29.27.45.4s.26.26.4.38l.39.35.4.37.41.37.38.35.36.32.43.4.61.54.67.62.78.69c.27.26.55.53.84.78l.76.69c.3.29.62.56.93.84s.76.7,1.15,1,.7.67,1.07,1c.21.21.42.42.64.62l.45.4.5.45q9.69,9.07,28.48,7.44,16.26-1.41,26.26-10t10-20.87A21.1,21.1,0,0,0,215,138.83ZM162.37,149l-.12-.35-.37.1c-.07-.21-.15-.42-.22-.64l-.47.13c-.1-.27-.2-.53-.28-.82l-.28.08c0-.16-.11-.31-.16-.48l-.28.07c-.05-.15-.11-.3-.16-.47l-.17,0c0-.1-.07-.19-.1-.29l-.31.08c-.06-.18-.13-.35-.19-.54l-.2.06-.09-.27a34.52,34.52,0,0,0,9.16,3.62A20.43,20.43,0,0,1,162.37,149Zm-3.73-3.29-.09-.27.32.21Zm-.8-.7,0-.08.09.06Zm-.93-.81h0Zm-2.82-2.57.2.19-.13,0Z" transform="translate(-128.29 -29.15)"/><path class="cls-1" d="M130.32,146.84l23.17-6.2q2.91,9.57,15,8.51c6.27-.54,9.41-2.49,9.41-5.82a4.22,4.22,0,0,0-2.17-3.89q-2.17-1.26-7.78-1.91-21.37-2.22-27.45-8.3a20.44,20.44,0,0,1-6.07-15,26.66,26.66,0,0,1,8.73-19.88q8.72-8.39,25.09-9.82,24.84-2.17,32.81,17.08l-20.66,8.06q-3.21-7.87-13-7-8.16.72-8.16,5.78a3.63,3.63,0,0,0,1.85,3.35c1.23.72,3.61,1.31,7.14,1.75q14.59,1.81,20.73,3.65a19.78,19.78,0,0,1,10.24,7.22,21.15,21.15,0,0,1,4.1,13.2q0,12.33-10,20.87T167,168.4Q137.29,171,130.32,146.84Z" transform="translate(-128.29 -29.15)"/><path class="cls-1" d="M286.09,156.73l-27.3,2.39-14.05-29.49-8.43,12.7v18.75l-23.52,2.06V81.87l23.52-2.06v33.6l22.41-35.56,22.43-2-20.53,31.54Z" transform="translate(-128.29 -29.15)"/><path class="cls-1" d="M365.1,149.82l-27.66,2.42-11.87-30.05-7.86.69V154l-24.95,2.19V74.87l42.45-3.71q14.06-1.23,21.82,4.67T364.8,92.5A27.68,27.68,0,0,1,362,105.17q-2.86,5.64-11.56,10.51ZM317.71,105.5l10.65-.94a14.14,14.14,0,0,0,7.57-2.62,7.24,7.24,0,0,0,2.85-6q0-7.8-9.58-7l-11.49,1Z" transform="translate(-128.29 -29.15)"/><path class="cls-1" d="M442.8,61.74v53.83q0,15.3-9.08,22.79t-23.66,8.77q-15.36,1.35-24.68-4.27t-9.32-20.14V67.58l25.36-2.22v52.22q0,5.83,2.47,8.3c1.64,1.64,4.26,2.31,7.87,2a14,14,0,0,0,7.39-2.58,8.41,8.41,0,0,0,3.44-4.68,51.63,51.63,0,0,0,.57-9.57V63.46ZM399.4,50.42,426.61,34.7,431,45.93,402.5,58.3Z" transform="translate(-128.29 -29.15)"/><path class="cls-1" d="M456.14,141.85V60.58L497.41,57q12.85-1.12,18.75,4.84a19.69,19.69,0,0,1,5.9,14.32,20.1,20.1,0,0,1-3.43,11.28,19.62,19.62,0,0,1-10.21,7.65q15.78,2.43,15.78,17.56a27.53,27.53,0,0,1-5.57,16.65q-5.57,7.6-23.78,9.2Zm23-52.14,11.55-1q4.35-.39,6.13-2.74a8,8,0,0,0,1.79-4.86q0-6.8-8.34-6.06l-11.13,1Zm0,32,12.14-1.06c3-.27,5.23-1.2,6.64-2.82a7.78,7.78,0,0,0,2.12-5.21,7,7,0,0,0-2.06-5q-2.06-2.18-7.53-1.7l-11.31,1Z" transform="translate(-128.29 -29.15)"/><path class="cls-1" d="M534.5,135V53.72l41.26-3.61Q588.63,49,594.52,55a19.65,19.65,0,0,1,5.9,14.31A20.21,20.21,0,0,1,597,80.56a19.73,19.73,0,0,1-10.21,7.65q15.78,2.43,15.78,17.55A27.55,27.55,0,0,1,597,122.41q-5.57,7.61-23.79,9.2Zm23-52.15,11.55-1c2.89-.25,4.94-1.17,6.13-2.74A8,8,0,0,0,577,74.24c0-4.53-2.78-6.54-8.34-6.06l-11.13,1Zm0,32,12.14-1.06q4.53-.39,6.64-2.81a7.79,7.79,0,0,0,2.12-5.22,7,7,0,0,0-2.06-5q-2.05-2.17-7.53-1.69l-11.31,1Z" transform="translate(-128.29 -29.15)"/><path class="cls-2" d="M130.15,146.85l23.17-6.19q2.91,9.57,15,8.51,9.41-.82,9.41-5.82a4.2,4.2,0,0,0-2.18-3.89c-1.44-.85-4-1.48-7.77-1.91q-21.37-2.22-27.45-8.31a20.44,20.44,0,0,1-6.07-15A26.66,26.66,0,0,1,143,94.35q8.72-8.38,25.09-9.82,24.84-2.18,32.81,17.07l-20.66,8.06q-3.21-7.87-13-7-8.16.7-8.16,5.77a3.62,3.62,0,0,0,1.85,3.35c1.23.73,3.61,1.31,7.14,1.76q14.6,1.8,20.73,3.64A19.86,19.86,0,0,1,199,124.4a21.16,21.16,0,0,1,4.1,13.19q0,12.35-10,20.87t-26.26,9.95Q137.12,171,130.15,146.85Z" transform="translate(-128.29 -29.15)"/><path class="cls-2" d="M285.92,156.74l-27.3,2.39-14.05-29.48-8.43,12.69V161.1l-23.52,2.06V81.88l23.52-2.06v33.61l22.41-35.57,22.43-2-20.53,31.54Z" transform="translate(-128.29 -29.15)"/><path class="cls-2" d="M364.93,149.83l-27.66,2.42-11.87-30-7.87.69V154l-24.94,2.18V74.88L335,71.17q14.06-1.23,21.82,4.67t7.77,16.68a27.67,27.67,0,0,1-2.85,12.66q-2.86,5.64-11.56,10.51Zm-47.4-44.32,10.66-.93a14.15,14.15,0,0,0,7.57-2.63,7.22,7.22,0,0,0,2.85-6q0-7.8-9.58-7l-11.5,1Z" transform="translate(-128.29 -29.15)"/><path class="cls-2" d="M442.63,61.76v53.82q0,15.32-9.08,22.8t-23.66,8.77q-15.37,1.33-24.68-4.27t-9.32-20.15V67.6l25.36-2.22V117.6c0,3.89.82,6.65,2.47,8.3s4.26,2.3,7.87,2a14.12,14.12,0,0,0,7.39-2.58,8.41,8.41,0,0,0,3.44-4.68,51.69,51.69,0,0,0,.57-9.58V63.48Zm-43.4-11.33,27.21-15.72,4.35,11.23L402.32,58.32Z" transform="translate(-128.29 -29.15)"/><path class="cls-2" d="M456,141.87V60.59L497.24,57Q510.1,55.86,516,61.83a19.65,19.65,0,0,1,5.9,14.31,20.21,20.21,0,0,1-3.43,11.29,19.73,19.73,0,0,1-10.21,7.65Q524,97.51,524,112.63a27.55,27.55,0,0,1-5.57,16.65q-5.57,7.6-23.78,9.2Zm23-52.15,11.55-1c2.89-.25,4.94-1.17,6.13-2.74a8,8,0,0,0,1.79-4.86q0-6.78-8.34-6.06L479,76Zm0,32,12.14-1.07q4.53-.39,6.64-2.81a7.79,7.79,0,0,0,2.12-5.22,7,7,0,0,0-2.06-5q-2.06-2.18-7.53-1.69L479,107Z" transform="translate(-128.29 -29.15)"/><path class="cls-2" d="M534.33,135V53.73l41.26-3.61Q588.46,49,594.35,55a19.67,19.67,0,0,1,5.89,14.31,20.18,20.18,0,0,1-3.42,11.29,19.71,19.71,0,0,1-10.21,7.65q15.78,2.43,15.78,17.56a27.59,27.59,0,0,1-5.57,16.65q-5.57,7.6-23.79,9.2Zm23-52.14,11.56-1c2.89-.26,4.94-1.17,6.13-2.74a8,8,0,0,0,1.79-4.86q0-6.8-8.34-6.06l-11.14,1Zm0,32,12.15-1.06q4.53-.41,6.64-2.82a7.77,7.77,0,0,0,2.11-5.21,7,7,0,0,0-2.05-5q-2.05-2.18-7.53-1.7l-11.32,1Z" transform="translate(-128.29 -29.15)"/><text class="cls-3" transform="matrix(1, -0.09, 0, 1, 2.15, 208.04)">VIÐ</text><text class="cls-3" transform="matrix(1, -0.09, 0, 1, 138.54, 196.11)">REDDUM</text><text class="cls-3" transform="matrix(1, -0.09, 0, 1, 396.19, 173.56)">ÞÉR</text><polygon class="cls-4" points="110.38 167.62 113.51 177 123.66 176.11 115.45 182.79 118.58 192.16 110.38 186.92 102.17 193.6 105.3 183.68 97.1 178.43 107.24 177.54 110.38 167.62"/><polygon class="cls-4" points="368.03 145.08 371.17 154.46 381.31 153.57 373.1 160.25 376.24 169.62 368.03 164.38 359.82 171.06 362.96 161.14 354.75 155.89 364.9 155 368.03 145.08"/><polygon class="cls-5" points="497.01 6.5 494.27 14.8 499.37 21.18 490.85 21.81 485.94 29.2 483.41 21.29 475.28 19.47 482.23 13.95 482.12 5.44 488.94 9.94 497.01 6.5"/><polygon class="cls-5" points="473.62 2.61 471.7 8.42 475.27 12.89 469.31 13.34 465.87 18.5 464.1 12.97 458.4 11.69 463.27 7.83 463.2 1.87 467.97 5.02 473.62 2.61"/><polygon class="cls-5" points="502.94 29.36 501.02 35.18 504.59 39.64 498.63 40.09 495.19 45.26 493.42 39.72 487.72 38.45 492.59 34.58 492.51 28.63 497.29 31.77 502.94 29.36"/></svg>